<mxfile host="Electron" modified="2024-08-25T15:18:32.999Z" agent="Mozilla/5.0 (Windows NT 10.0; Win64; x64) AppleWebKit/537.36 (KHTML, like Gecko) draw.io/24.6.4 Chrome/124.0.6367.207 Electron/30.0.6 Safari/537.36" etag="Jmzod-Js1SWVNrmCUx18" version="24.6.4" type="device">
  <diagram name="Page-1" id="iomSMd12KGpMH-CYqlQn">
    <mxGraphModel dx="1434" dy="854" grid="1" gridSize="10" guides="1" tooltips="1" connect="1" arrows="1" fold="1" page="1" pageScale="1" pageWidth="1169" pageHeight="827" math="0" shadow="0">
      <root>
        <mxCell id="0" />
        <mxCell id="1" parent="0" />
        <mxCell id="QuXru1zUYhoHmNLPf4Nt-7" value="Тренажерный зал" style="shape=umlActor;verticalLabelPosition=bottom;verticalAlign=top;html=1;outlineConnect=0;" parent="1" vertex="1">
          <mxGeometry x="1000" y="320" width="80" height="150" as="geometry" />
        </mxCell>
        <mxCell id="QuXru1zUYhoHmNLPf4Nt-9" value="" style="group" parent="1" connectable="0" vertex="1">
          <mxGeometry x="320" y="10" width="600" height="800" as="geometry" />
        </mxCell>
        <mxCell id="QuXru1zUYhoHmNLPf4Nt-2" value="" style="rounded=0;whiteSpace=wrap;html=1;" parent="QuXru1zUYhoHmNLPf4Nt-9" vertex="1">
          <mxGeometry x="20" width="600" height="800" as="geometry" />
        </mxCell>
        <mxCell id="QuXru1zUYhoHmNLPf4Nt-4" value="&lt;span style=&quot;font-size: 20px;&quot;&gt;&lt;b&gt;FitToday&lt;/b&gt;&lt;/span&gt;&lt;div&gt;&lt;div&gt;&lt;div style=&quot;font-size: 20px;&quot;&gt;&lt;font style=&quot;font-size: 20px;&quot;&gt;&lt;b&gt;&amp;nbsp;App&lt;/b&gt;&lt;/font&gt;&lt;/div&gt;&lt;/div&gt;&lt;/div&gt;" style="text;html=1;align=center;verticalAlign=middle;whiteSpace=wrap;rounded=0;" parent="QuXru1zUYhoHmNLPf4Nt-9" vertex="1">
          <mxGeometry x="232.5" y="3.7919359803016306" width="135" height="56.87903970452446" as="geometry" />
        </mxCell>
        <mxCell id="QuXru1zUYhoHmNLPf4Nt-12" value="&lt;font style=&quot;font-size: 16px;&quot;&gt;Register a new user&lt;/font&gt;" style="ellipse;whiteSpace=wrap;html=1;fontSize=22;fontStyle=1" parent="QuXru1zUYhoHmNLPf4Nt-9" vertex="1">
          <mxGeometry x="126.09" y="45" width="110" height="80" as="geometry" />
        </mxCell>
        <mxCell id="QuXru1zUYhoHmNLPf4Nt-10" value="&lt;font style=&quot;font-size: 16px;&quot;&gt;Log in&lt;/font&gt;" style="ellipse;whiteSpace=wrap;html=1;fontSize=22;fontStyle=1" parent="QuXru1zUYhoHmNLPf4Nt-9" vertex="1">
          <mxGeometry x="137.91000000000005" y="155" width="95" height="50" as="geometry" />
        </mxCell>
        <mxCell id="QuXru1zUYhoHmNLPf4Nt-15" value="&lt;font style=&quot;font-size: 15px;&quot;&gt;Get the list of workouts&lt;/font&gt;" style="ellipse;whiteSpace=wrap;html=1;fontSize=22;fontStyle=1" parent="QuXru1zUYhoHmNLPf4Nt-9" vertex="1">
          <mxGeometry x="126.86999999999999" y="210" width="117.09" height="61" as="geometry" />
        </mxCell>
        <mxCell id="QuXru1zUYhoHmNLPf4Nt-11" value="&lt;font style=&quot;font-size: 16px;&quot;&gt;Log out&lt;/font&gt;" style="ellipse;whiteSpace=wrap;html=1;fontSize=22;fontStyle=1" parent="QuXru1zUYhoHmNLPf4Nt-9" vertex="1">
          <mxGeometry x="137.91000000000005" y="695" width="120" height="80" as="geometry" />
        </mxCell>
        <mxCell id="QuXru1zUYhoHmNLPf4Nt-13" style="edgeStyle=orthogonalEdgeStyle;rounded=0;orthogonalLoop=1;jettySize=auto;html=1;exitX=0.5;exitY=1;exitDx=0;exitDy=0;" parent="QuXru1zUYhoHmNLPf4Nt-9" source="QuXru1zUYhoHmNLPf4Nt-11" target="QuXru1zUYhoHmNLPf4Nt-11" edge="1">
          <mxGeometry relative="1" as="geometry" />
        </mxCell>
        <mxCell id="QuXru1zUYhoHmNLPf4Nt-61" value="&lt;font style=&quot;font-size: 14px;&quot;&gt;Verify the new user is not already exist&lt;/font&gt;" style="ellipse;whiteSpace=wrap;html=1;fontSize=22;fontStyle=1" parent="QuXru1zUYhoHmNLPf4Nt-9" vertex="1">
          <mxGeometry x="379.99999999999994" y="45" width="159" height="90" as="geometry" />
        </mxCell>
        <mxCell id="QuXru1zUYhoHmNLPf4Nt-62" value="&lt;font style=&quot;font-size: 15px;&quot;&gt;Display registration error&lt;/font&gt;" style="ellipse;whiteSpace=wrap;html=1;fontSize=22;fontStyle=1" parent="QuXru1zUYhoHmNLPf4Nt-9" vertex="1">
          <mxGeometry x="367.49999999999994" y="175" width="160" height="60" as="geometry" />
        </mxCell>
        <mxCell id="QuXru1zUYhoHmNLPf4Nt-58" value="&lt;font style=&quot;font-size: 15px;&quot;&gt;Verify password&lt;/font&gt;" style="ellipse;whiteSpace=wrap;html=1;fontSize=22;fontStyle=1" parent="QuXru1zUYhoHmNLPf4Nt-9" vertex="1">
          <mxGeometry x="367.49999999999994" y="290" width="120" height="46" as="geometry" />
        </mxCell>
        <mxCell id="QuXru1zUYhoHmNLPf4Nt-59" value="&lt;font style=&quot;font-size: 14px;&quot;&gt;Display logging error&lt;/font&gt;" style="ellipse;whiteSpace=wrap;html=1;fontSize=22;fontStyle=1" parent="QuXru1zUYhoHmNLPf4Nt-9" vertex="1">
          <mxGeometry x="367.49999999999994" y="360" width="114.5" height="62" as="geometry" />
        </mxCell>
        <mxCell id="QuXru1zUYhoHmNLPf4Nt-67" value="" style="endArrow=classic;html=1;rounded=0;entryX=0;entryY=0.5;entryDx=0;entryDy=0;exitX=1;exitY=0.5;exitDx=0;exitDy=0;dashed=1;" parent="QuXru1zUYhoHmNLPf4Nt-9" source="QuXru1zUYhoHmNLPf4Nt-12" target="QuXru1zUYhoHmNLPf4Nt-61" edge="1">
          <mxGeometry width="50" height="50" relative="1" as="geometry">
            <mxPoint x="404.72999999999996" y="255" as="sourcePoint" />
            <mxPoint x="454.72999999999996" y="205" as="targetPoint" />
          </mxGeometry>
        </mxCell>
        <mxCell id="QuXru1zUYhoHmNLPf4Nt-66" value="&amp;lt;&amp;lt;include&amp;gt;&amp;gt;" style="text;whiteSpace=wrap;html=1;rotation=0;" parent="QuXru1zUYhoHmNLPf4Nt-9" vertex="1">
          <mxGeometry x="265" y="60.67" width="70" height="30" as="geometry" />
        </mxCell>
        <mxCell id="QuXru1zUYhoHmNLPf4Nt-72" value="" style="endArrow=classic;html=1;rounded=0;exitX=1;exitY=0.5;exitDx=0;exitDy=0;entryX=0;entryY=0.5;entryDx=0;entryDy=0;dashed=1;" parent="QuXru1zUYhoHmNLPf4Nt-9" source="QuXru1zUYhoHmNLPf4Nt-10" target="QuXru1zUYhoHmNLPf4Nt-58" edge="1">
          <mxGeometry width="50" height="50" relative="1" as="geometry">
            <mxPoint x="324.72999999999996" y="65" as="sourcePoint" />
            <mxPoint x="374.72999999999996" y="15" as="targetPoint" />
          </mxGeometry>
        </mxCell>
        <mxCell id="QuXru1zUYhoHmNLPf4Nt-73" value="&amp;lt;&amp;lt;include&amp;gt;&amp;gt;" style="text;whiteSpace=wrap;html=1;rotation=45;" parent="QuXru1zUYhoHmNLPf4Nt-9" vertex="1">
          <mxGeometry x="264.99999999999994" y="220" width="70" height="30" as="geometry" />
        </mxCell>
        <mxCell id="QuXru1zUYhoHmNLPf4Nt-75" value="" style="endArrow=classic;html=1;rounded=0;entryX=1;entryY=1;entryDx=0;entryDy=0;exitX=0;exitY=0;exitDx=0;exitDy=0;dashed=1;" parent="QuXru1zUYhoHmNLPf4Nt-9" source="QuXru1zUYhoHmNLPf4Nt-59" target="QuXru1zUYhoHmNLPf4Nt-10" edge="1">
          <mxGeometry width="50" height="50" relative="1" as="geometry">
            <mxPoint x="324.72999999999996" y="235" as="sourcePoint" />
            <mxPoint x="374.72999999999996" y="185" as="targetPoint" />
          </mxGeometry>
        </mxCell>
        <mxCell id="QuXru1zUYhoHmNLPf4Nt-77" value="&amp;lt;&amp;lt;extended&amp;gt;&amp;gt;" style="text;whiteSpace=wrap;html=1;rotation=45;" parent="QuXru1zUYhoHmNLPf4Nt-9" vertex="1">
          <mxGeometry x="272.90999999999997" y="265" width="70" height="30" as="geometry" />
        </mxCell>
        <mxCell id="QuXru1zUYhoHmNLPf4Nt-78" value="" style="endArrow=classic;html=1;rounded=0;entryX=1;entryY=1;entryDx=0;entryDy=0;exitX=0;exitY=0.5;exitDx=0;exitDy=0;dashed=1;" parent="QuXru1zUYhoHmNLPf4Nt-9" source="QuXru1zUYhoHmNLPf4Nt-62" target="QuXru1zUYhoHmNLPf4Nt-12" edge="1">
          <mxGeometry width="50" height="50" relative="1" as="geometry">
            <mxPoint x="324.72999999999996" y="235" as="sourcePoint" />
            <mxPoint x="374.72999999999996" y="185" as="targetPoint" />
          </mxGeometry>
        </mxCell>
        <mxCell id="QuXru1zUYhoHmNLPf4Nt-79" value="&amp;lt;&amp;lt;extended&amp;gt;&amp;gt;" style="text;whiteSpace=wrap;html=1;rotation=35;" parent="QuXru1zUYhoHmNLPf4Nt-9" vertex="1">
          <mxGeometry x="260.90999999999997" y="159" width="70" height="30" as="geometry" />
        </mxCell>
        <mxCell id="6D9-nDPek5AweU0arsGU-3" value="&lt;font style=&quot;font-size: 16px;&quot;&gt;Create a schedule record&lt;/font&gt;" style="ellipse;whiteSpace=wrap;html=1;fontSize=22;fontStyle=1" parent="QuXru1zUYhoHmNLPf4Nt-9" vertex="1">
          <mxGeometry x="126.87" y="470" width="123.64" height="80" as="geometry" />
        </mxCell>
        <mxCell id="6D9-nDPek5AweU0arsGU-8" value="&lt;font style=&quot;font-size: 16px;&quot;&gt;Cancel a schedule record&lt;/font&gt;" style="ellipse;whiteSpace=wrap;html=1;fontSize=22;fontStyle=1" parent="QuXru1zUYhoHmNLPf4Nt-9" vertex="1">
          <mxGeometry x="126.86999999999996" y="370" width="123.64" height="80" as="geometry" />
        </mxCell>
        <mxCell id="6D9-nDPek5AweU0arsGU-10" value="&lt;font style=&quot;font-size: 15px;&quot;&gt;Get the list of schedule records&lt;/font&gt;" style="ellipse;whiteSpace=wrap;html=1;fontSize=22;fontStyle=1" parent="QuXru1zUYhoHmNLPf4Nt-9" vertex="1">
          <mxGeometry x="126.87" y="282.5" width="133.13" height="77.5" as="geometry" />
        </mxCell>
        <mxCell id="mJP1iHNZcZVPWcQlC1ns-26" value="&lt;font style=&quot;font-size: 16px;&quot;&gt;Filter schedule records&lt;/font&gt;" style="ellipse;whiteSpace=wrap;html=1;fontSize=22;fontStyle=1" vertex="1" parent="QuXru1zUYhoHmNLPf4Nt-9">
          <mxGeometry x="126.87" y="560" width="123.64" height="80" as="geometry" />
        </mxCell>
        <mxCell id="QuXru1zUYhoHmNLPf4Nt-5" value="Пользователь&lt;div&gt;&lt;br&gt;&lt;/div&gt;" style="shape=umlActor;verticalLabelPosition=bottom;verticalAlign=top;html=1;outlineConnect=0;" parent="1" vertex="1">
          <mxGeometry x="20" y="280" width="80" height="150" as="geometry" />
        </mxCell>
        <mxCell id="QuXru1zUYhoHmNLPf4Nt-31" value="" style="endArrow=none;html=1;rounded=0;entryX=0;entryY=0.5;entryDx=0;entryDy=0;exitX=1;exitY=0.3333333333333333;exitDx=0;exitDy=0;exitPerimeter=0;" parent="1" source="QuXru1zUYhoHmNLPf4Nt-5" target="QuXru1zUYhoHmNLPf4Nt-10" edge="1">
          <mxGeometry width="50" height="50" relative="1" as="geometry">
            <mxPoint x="330" y="474.67" as="sourcePoint" />
            <mxPoint x="380" y="424.67" as="targetPoint" />
          </mxGeometry>
        </mxCell>
        <mxCell id="QuXru1zUYhoHmNLPf4Nt-32" value="" style="endArrow=none;html=1;rounded=0;entryX=0;entryY=0.5;entryDx=0;entryDy=0;exitX=1;exitY=0.3333333333333333;exitDx=0;exitDy=0;exitPerimeter=0;" parent="1" source="QuXru1zUYhoHmNLPf4Nt-5" target="QuXru1zUYhoHmNLPf4Nt-15" edge="1">
          <mxGeometry width="50" height="50" relative="1" as="geometry">
            <mxPoint x="340" y="474.67" as="sourcePoint" />
            <mxPoint x="390" y="424.67" as="targetPoint" />
          </mxGeometry>
        </mxCell>
        <mxCell id="QuXru1zUYhoHmNLPf4Nt-35" value="" style="endArrow=none;html=1;rounded=0;exitX=1;exitY=0.3333333333333333;exitDx=0;exitDy=0;exitPerimeter=0;entryX=0;entryY=0.5;entryDx=0;entryDy=0;" parent="1" source="QuXru1zUYhoHmNLPf4Nt-5" target="QuXru1zUYhoHmNLPf4Nt-11" edge="1">
          <mxGeometry width="50" height="50" relative="1" as="geometry">
            <mxPoint x="500" y="584.67" as="sourcePoint" />
            <mxPoint x="550" y="534.6700000000001" as="targetPoint" />
          </mxGeometry>
        </mxCell>
        <mxCell id="QuXru1zUYhoHmNLPf4Nt-29" value="" style="endArrow=none;html=1;rounded=0;entryX=0;entryY=0.5;entryDx=0;entryDy=0;exitX=1;exitY=0.3333333333333333;exitDx=0;exitDy=0;exitPerimeter=0;" parent="1" source="QuXru1zUYhoHmNLPf4Nt-5" target="QuXru1zUYhoHmNLPf4Nt-12" edge="1">
          <mxGeometry width="50" height="50" relative="1" as="geometry">
            <mxPoint x="100" y="580" as="sourcePoint" />
            <mxPoint x="570" y="284.67" as="targetPoint" />
          </mxGeometry>
        </mxCell>
        <mxCell id="6D9-nDPek5AweU0arsGU-7" value="" style="endArrow=none;html=1;rounded=0;exitX=1;exitY=0.5;exitDx=0;exitDy=0;entryX=0;entryY=0.3333333333333333;entryDx=0;entryDy=0;entryPerimeter=0;" parent="1" source="6D9-nDPek5AweU0arsGU-3" target="QuXru1zUYhoHmNLPf4Nt-7" edge="1">
          <mxGeometry width="50" height="50" relative="1" as="geometry">
            <mxPoint x="595" y="560" as="sourcePoint" />
            <mxPoint x="1010" y="380" as="targetPoint" />
            <Array as="points">
              <mxPoint x="800" y="500" />
            </Array>
          </mxGeometry>
        </mxCell>
        <mxCell id="6D9-nDPek5AweU0arsGU-9" value="" style="endArrow=none;html=1;rounded=0;exitX=1;exitY=0.5;exitDx=0;exitDy=0;entryX=0;entryY=0.3333333333333333;entryDx=0;entryDy=0;entryPerimeter=0;" parent="1" source="6D9-nDPek5AweU0arsGU-8" target="QuXru1zUYhoHmNLPf4Nt-7" edge="1">
          <mxGeometry width="50" height="50" relative="1" as="geometry">
            <mxPoint x="595" y="650" as="sourcePoint" />
            <mxPoint x="1010" y="380" as="targetPoint" />
            <Array as="points">
              <mxPoint x="710" y="470" />
              <mxPoint x="810" y="430" />
            </Array>
          </mxGeometry>
        </mxCell>
        <mxCell id="6D9-nDPek5AweU0arsGU-13" value="" style="endArrow=none;html=1;rounded=0;exitX=1;exitY=0.3333333333333333;exitDx=0;exitDy=0;exitPerimeter=0;entryX=0;entryY=0.5;entryDx=0;entryDy=0;" parent="1" source="QuXru1zUYhoHmNLPf4Nt-5" target="6D9-nDPek5AweU0arsGU-3" edge="1">
          <mxGeometry width="50" height="50" relative="1" as="geometry">
            <mxPoint x="110" y="340" as="sourcePoint" />
            <mxPoint x="471" y="560" as="targetPoint" />
          </mxGeometry>
        </mxCell>
        <mxCell id="6D9-nDPek5AweU0arsGU-14" value="" style="endArrow=none;html=1;rounded=0;exitX=1;exitY=0.3333333333333333;exitDx=0;exitDy=0;exitPerimeter=0;entryX=0;entryY=0.5;entryDx=0;entryDy=0;" parent="1" source="QuXru1zUYhoHmNLPf4Nt-5" target="6D9-nDPek5AweU0arsGU-8" edge="1">
          <mxGeometry width="50" height="50" relative="1" as="geometry">
            <mxPoint x="110" y="340" as="sourcePoint" />
            <mxPoint x="471" y="650" as="targetPoint" />
          </mxGeometry>
        </mxCell>
        <mxCell id="mJP1iHNZcZVPWcQlC1ns-2" value="" style="endArrow=none;html=1;rounded=0;entryX=0;entryY=0.5;entryDx=0;entryDy=0;exitX=1;exitY=0.3333333333333333;exitDx=0;exitDy=0;exitPerimeter=0;" edge="1" parent="1" source="QuXru1zUYhoHmNLPf4Nt-5" target="6D9-nDPek5AweU0arsGU-10">
          <mxGeometry width="50" height="50" relative="1" as="geometry">
            <mxPoint x="110" y="340" as="sourcePoint" />
            <mxPoint x="456" y="95" as="targetPoint" />
          </mxGeometry>
        </mxCell>
        <mxCell id="mJP1iHNZcZVPWcQlC1ns-28" value="" style="endArrow=none;html=1;rounded=0;exitX=1;exitY=0.3333333333333333;exitDx=0;exitDy=0;exitPerimeter=0;entryX=0;entryY=0.5;entryDx=0;entryDy=0;" edge="1" parent="1" source="QuXru1zUYhoHmNLPf4Nt-5" target="mJP1iHNZcZVPWcQlC1ns-26">
          <mxGeometry width="50" height="50" relative="1" as="geometry">
            <mxPoint x="110" y="340" as="sourcePoint" />
            <mxPoint x="468" y="755" as="targetPoint" />
          </mxGeometry>
        </mxCell>
      </root>
    </mxGraphModel>
  </diagram>
</mxfile>
